<svg width="787" height="591" viewBox="0 0 787 591" fill="none" xmlns="http://www.w3.org/2000/svg">
<g clip-path="url(#clip0_1_2)">
<path d="M508.074 362.197H460.816C459.537 362.195 458.31 361.686 457.405 360.781C456.5 359.877 455.991 358.65 455.99 357.37V162.143C455.991 160.864 456.5 159.637 457.405 158.732C458.31 157.827 459.537 157.318 460.816 157.317H508.074C509.353 157.318 510.58 157.827 511.485 158.732C512.39 159.637 512.899 160.864 512.901 162.143V357.37C512.899 358.65 512.39 359.877 511.485 360.781C510.58 361.686 509.353 362.195 508.074 362.197Z" fill="#F2F2F2"/>
<path d="M139.727 267.887C145.115 267.887 149.483 263.519 149.483 258.131C149.483 252.742 145.115 248.374 139.727 248.374C134.338 248.374 129.97 252.742 129.97 258.131C129.97 263.519 134.338 267.887 139.727 267.887Z" fill="#3F3D56"/>
<path d="M225.906 204.472C231.294 204.472 235.662 200.104 235.662 194.715C235.662 189.327 231.294 184.959 225.906 184.959C220.518 184.959 216.15 189.327 216.15 194.715C216.15 200.104 220.518 204.472 225.906 204.472Z" fill="#3F3D56"/>
<path d="M312.086 267.887C317.474 267.887 321.842 263.519 321.842 258.131C321.842 252.742 317.474 248.374 312.086 248.374C306.698 248.374 302.33 252.742 302.33 258.131C302.33 263.519 306.698 267.887 312.086 267.887Z" fill="#3F3D56"/>
<path d="M398.266 173.577C403.654 173.577 408.022 169.209 408.022 163.821C408.022 158.433 403.654 154.065 398.266 154.065C392.877 154.065 388.509 158.433 388.509 163.821C388.509 169.209 392.877 173.577 398.266 173.577Z" fill="#3F3D56"/>
<path d="M484.445 137.804C489.833 137.804 494.201 133.436 494.201 128.048C494.201 122.66 489.833 118.292 484.445 118.292C479.057 118.292 474.689 122.66 474.689 128.048C474.689 133.436 479.057 137.804 484.445 137.804Z" fill="#3F3D56"/>
<path d="M312.292 260.316L225.906 195.613L140.702 259.432L138.752 256.829L225.906 191.549L311.88 255.945L397.315 162.451L397.658 162.312L483.837 127.589L485.053 130.606L399.216 165.19L312.292 260.316Z" fill="#3F3D56"/>
<path d="M604.996 574.714L590.317 574.713L583.333 518.093L604.999 518.094L604.996 574.714Z" fill="#FFB6B6"/>
<path d="M608.74 588.943L561.407 588.942V588.343C561.408 583.457 563.349 578.771 566.804 575.316C570.258 571.862 574.944 569.92 579.83 569.92H579.831L608.74 569.921L608.74 588.943Z" fill="#2F2E41"/>
<path d="M552.535 335.064L560.869 467.846L588.85 561.31L610.528 562.88L599.642 448.972L604.415 373.325C604.415 373.325 627.042 356.459 614.531 336.155L552.535 335.064Z" fill="#2F2E41"/>
<path d="M614.575 574.714L599.895 574.713L592.912 518.093L614.577 518.094L614.575 574.714Z" fill="#FFB6B6"/>
<path d="M618.318 588.943L570.986 588.942V588.343C570.986 583.457 572.927 578.771 576.382 575.316C579.837 571.862 584.523 569.92 589.409 569.92H589.41L618.319 569.921L618.318 588.943Z" fill="#2F2E41"/>
<path d="M562.114 335.064L570.447 467.846L598.429 561.31L620.107 562.88L609.221 448.972L613.994 373.325C613.994 373.325 636.621 356.459 624.11 336.155L562.114 335.064Z" fill="#2F2E41"/>
<path d="M607.291 355.626C582.293 355.626 552.871 340.349 551.166 339.451L550.692 339.202L608.065 192.836L636.479 179.413C638.667 178.379 641.091 177.948 643.501 178.164C645.911 178.38 648.22 179.236 650.189 180.642C652.158 182.049 653.716 183.955 654.702 186.165C655.688 188.374 656.067 190.807 655.799 193.212L644.523 294.366L632.753 346.757L632.628 346.879C626.132 353.298 617.047 355.626 607.291 355.626Z" fill="#3F3D56"/>
<path d="M515.611 258.734C517.098 257.791 518.773 257.186 520.518 256.961C522.264 256.736 524.038 256.896 525.715 257.431C527.392 257.965 528.932 258.861 530.225 260.055C531.519 261.249 532.535 262.712 533.201 264.341L575.925 262.007L564.715 281.209L525.863 280.481C523.052 281.42 519.994 281.295 517.269 280.131C514.544 278.966 512.341 276.842 511.077 274.161C509.814 271.481 509.577 268.43 510.413 265.586C511.248 262.743 513.098 260.305 515.611 258.734Z" fill="#FFB6B6"/>
<path d="M599.924 288.792L557.108 287.699L557.661 259.378L577.907 252.934L611.115 206.356C612.778 204.024 614.892 202.049 617.331 200.547C619.77 199.046 622.486 198.049 625.317 197.615C628.148 197.181 631.038 197.32 633.815 198.022C636.592 198.725 639.2 199.976 641.484 201.704C643.769 203.432 645.684 205.6 647.116 208.08C648.548 210.561 649.468 213.304 649.822 216.146C650.176 218.988 649.957 221.873 649.177 224.629C648.396 227.385 647.072 229.956 645.28 232.192L599.924 288.792Z" fill="#3F3D56"/>
<path d="M624.713 174.019C640.426 174.019 653.163 161.282 653.163 145.57C653.163 129.858 640.426 117.121 624.713 117.121C609.001 117.121 596.264 129.858 596.264 145.57C596.264 161.282 609.001 174.019 624.713 174.019Z" fill="#FFB6B6"/>
<path d="M588.721 121.863C591.592 118.919 595.323 116.961 599.377 116.271C603.329 115.421 607.663 115.157 610.824 112.679C614.416 109.817 615.997 104.381 620.403 103.172C622.32 102.787 624.306 102.944 626.138 103.627C633.179 105.751 639.43 109.918 644.099 115.6C645.199 117.229 646.601 118.631 648.23 119.731C649.203 120.144 650.155 120.607 651.079 121.12C652.094 121.921 652.892 122.962 653.402 124.149C656.579 130.563 657.311 137.914 655.462 144.828C654.36 148.911 652.372 152.694 651.199 156.801C650.026 160.908 644.599 168.721 643.329 166.781C642.06 164.842 640.432 163.034 639.737 160.794C638.383 156.39 639.606 151.958 636.16 148.899C634.029 147.007 630.173 145.738 628.725 148.18C628.15 149.126 628.186 150.324 627.695 151.305C626.725 153.221 623.923 153.604 622.067 152.503C620.278 151.268 619.021 149.404 618.547 147.282C615.757 137.847 611.004 131.908 600.91 135.943C597.15 137.452 592.72 138.47 589.104 135.884C584.339 132.483 585.308 125.742 588.721 121.863Z" fill="#2F2E41"/>
<path d="M163.355 362.197H116.098C114.818 362.195 113.591 361.686 112.687 360.781C111.782 359.877 111.273 358.65 111.271 357.37V292.226C111.273 290.946 111.782 289.719 112.687 288.814C113.591 287.91 114.818 287.401 116.098 287.399H163.355C164.635 287.401 165.862 287.91 166.767 288.814C167.672 289.719 168.181 290.946 168.182 292.226V357.37C168.181 358.65 167.672 359.877 166.767 360.781C165.862 361.686 164.635 362.195 163.355 362.197Z" fill="#E6E6E6"/>
<path d="M249.535 362.197H202.278C200.998 362.195 199.771 361.686 198.866 360.781C197.961 359.877 197.452 358.65 197.451 357.37V230.436C197.452 229.157 197.961 227.93 198.866 227.025C199.771 226.12 200.998 225.611 202.278 225.61H249.535C250.815 225.611 252.041 226.12 252.946 227.025C253.851 227.93 254.36 229.157 254.362 230.436V357.37C254.36 358.65 253.851 359.877 252.946 360.781C252.041 361.686 250.815 362.195 249.535 362.197Z" fill="#E6E6E6"/>
<path d="M335.715 362.197H288.457C287.178 362.195 285.951 361.686 285.046 360.781C284.141 359.877 283.632 358.65 283.63 357.37V292.226C283.632 290.946 284.141 289.719 285.046 288.814C285.951 287.91 287.178 287.401 288.457 287.399H335.715C336.994 287.401 338.221 287.91 339.126 288.814C340.031 289.719 340.54 290.946 340.541 292.226V357.37C340.54 358.65 340.031 359.877 339.126 360.781C338.221 361.686 336.994 362.195 335.715 362.197Z" fill="#E6E6E6"/>
<path d="M421.894 362.197H374.637C373.386 362.224 372.176 361.754 371.271 360.89C370.367 360.026 369.841 358.839 369.81 357.589V205.827C369.841 204.577 370.367 203.39 371.271 202.526C372.176 201.662 373.386 201.193 374.637 201.22H421.894C423.145 201.193 424.355 201.662 425.26 202.526C426.164 203.39 426.69 204.577 426.721 205.827V357.589C426.69 358.839 426.164 360.026 425.26 360.89C424.355 361.754 423.145 362.224 421.894 362.197Z" fill="#E6E6E6"/>
<path d="M524.837 377.762H477.579C476.3 377.761 475.073 377.252 474.168 376.347C473.263 375.442 472.754 374.215 472.753 372.936V177.709C472.754 176.429 473.263 175.202 474.168 174.298C475.073 173.393 476.3 172.884 477.579 172.882H524.837C526.116 172.884 527.343 173.393 528.248 174.298C529.153 175.202 529.662 176.429 529.664 177.709V372.936C529.662 374.215 529.153 375.442 528.248 376.347C527.343 377.252 526.116 377.761 524.837 377.762Z" fill="#6C63FF"/>
<path d="M514.414 275.497C515.9 274.554 517.575 273.949 519.321 273.724C521.067 273.499 522.841 273.659 524.518 274.194C526.195 274.728 527.734 275.624 529.028 276.818C530.321 278.012 531.337 279.475 532.004 281.104L574.728 278.77L563.518 297.972L524.665 297.244C521.854 298.183 518.797 298.058 516.072 296.894C513.347 295.729 511.144 293.605 509.88 290.924C508.616 288.244 508.38 285.193 509.216 282.349C510.051 279.506 511.901 277.068 514.414 275.497Z" fill="#FFB6B6"/>
<path d="M598.726 305.555L555.911 304.462L556.464 276.141L576.709 269.697L609.918 223.119C611.581 220.787 613.694 218.811 616.134 217.31C618.573 215.809 621.288 214.812 624.12 214.378C626.951 213.944 629.841 214.083 632.617 214.785C635.394 215.487 638.002 216.739 640.287 218.467C642.571 220.195 644.486 222.363 645.919 224.843C647.351 227.324 648.271 230.067 648.625 232.909C648.979 235.751 648.759 238.636 647.979 241.392C647.199 244.148 645.874 246.719 644.083 248.955L598.726 305.555Z" fill="#3F3D56"/>
</g>
<defs>
<clipPath id="clip0_1_2">
<rect width="786.979" height="590.646" fill="white"/>
</clipPath>
</defs>
</svg>
