<svg width="575" height="532" viewBox="0 0 575 532" fill="none" xmlns="http://www.w3.org/2000/svg">
<g clip-path="url(#clip0_1_3)">
<rect width="575" height="532" fill="white"/>
<path d="M409.356 38.4838C446.18 66.8733 473.528 106.967 503.155 152.415C532.782 197.738 564.569 248.54 572.845 306.689C581.121 364.838 565.768 430.332 523.186 458.722C480.605 486.987 410.795 478.271 350.342 491.718C289.768 505.291 238.671 541.151 200.767 529.82C162.863 518.364 138.274 459.842 99.2911 413.772C60.428 367.702 7.29115 334.083 0.694021 293.117C-5.78316 252.027 34.2794 203.342 70.7435 166.609C107.207 129.878 140.193 105.099 174.379 75.4648C208.564 45.8302 243.949 11.3396 284.97 2.3745C325.872 -6.46606 372.412 10.2189 409.356 38.4838Z" fill="url(#paint0_linear_1_3)"/>
</g>
<defs>
<linearGradient id="paint0_linear_1_3" x1="195.489" y1="67.7448" x2="439.883" y2="457.484" gradientUnits="userSpaceOnUse">
<stop stop-color="#8EA1E3" stop-opacity="0.46"/>
<stop offset="1" stop-color="#CB97E9" stop-opacity="0.6"/>
</linearGradient>
<clipPath id="clip0_1_3">
<rect width="575" height="532" fill="white"/>
</clipPath>
</defs>
</svg>
