<svg width="551" height="412" viewBox="0 0 551 412" fill="none" xmlns="http://www.w3.org/2000/svg">
<path d="M283.131 381.526L489.412 270.107C490.899 269.336 492.15 268.182 493.036 266.763C493.922 265.345 494.41 263.716 494.448 262.046C494.486 260.375 494.073 258.726 493.252 257.269C492.432 255.812 491.234 254.602 489.784 253.765L289.812 134.587C288.282 133.681 286.541 133.192 284.761 133.168C282.982 133.144 281.228 133.586 279.674 134.449L61.464 256.278C59.9793 257.077 58.7391 258.261 57.8747 259.706C57.0102 261.15 56.5539 262.801 56.5539 264.483C56.5539 266.166 57.0102 267.816 57.8747 269.261C58.7391 270.705 59.9793 271.89 61.464 272.689L256.036 381.333C260.172 383.633 264.823 384.855 269.559 384.889C274.295 384.923 278.963 383.766 283.131 381.526V381.526Z" fill="#00275E"/>
<path d="M248.212 216.039C248.212 216.039 206.487 238.246 196.611 291.229C196.611 291.229 237.247 299.812 291.658 254.946" fill="#EB773A"/>
<path d="M247.688 222.796C247.688 222.796 229.891 238.713 224.877 249.947C219.863 261.181 213.32 277.619 213.32 277.619C213.32 277.619 244.658 280.284 274.122 262.307C303.587 244.33 275.5 210.711 247.688 222.796Z" fill="#FFAE46"/>
<path d="M265.375 217.206C264.301 219.005 245.966 229.305 242.536 244.165L248.515 239.647C248.515 239.647 238.349 253.847 234.037 262.018C234.037 262.018 258.832 252.171 258.061 252.762L251.049 258.063C251.049 258.063 269.907 257.665 282.732 246.239C295.556 234.813 277.924 214.885 277.924 214.885L265.375 217.206Z" fill="#FAD374"/>
<path d="M320.71 217.069C320.71 217.069 317.472 238.012 310.544 243.162C303.615 248.312 281.12 265.383 281.12 265.383L277.387 260.466C277.387 260.466 292.898 232.904 295.639 220.736C298.38 208.568 320.71 217.069 320.71 217.069Z" fill="#68E1FD"/>
<path opacity="0.61" d="M320.71 217.069C320.71 217.069 317.472 238.012 310.544 243.162C303.615 248.312 281.12 265.383 281.12 265.383L277.387 260.466C277.387 260.466 292.898 232.904 295.639 220.736C298.38 208.568 320.71 217.069 320.71 217.069Z" fill="#363636"/>
<path d="M298.311 187.597C298.311 187.597 277.208 185.043 270.293 190.344C263.378 195.645 240.87 212.565 240.87 212.565L244.603 217.481C244.603 217.481 275.417 210.051 287.911 210.724C300.405 211.397 298.311 187.597 298.311 187.597Z" fill="#68E1FD"/>
<path opacity="0.61" d="M298.311 187.597C298.311 187.597 277.208 185.043 270.293 190.344C263.378 195.645 240.87 212.565 240.87 212.565L244.603 217.481C244.603 217.481 275.417 210.051 287.911 210.724C300.405 211.397 298.311 187.597 298.311 187.597Z" fill="#363636"/>
<path d="M399.627 152.44C405.205 143.752 409.71 134.423 413.043 124.657C413.043 124.657 400.784 124.795 382.463 130.233C383.923 139.531 391.375 146.947 399.627 152.44Z" fill="#68E1FD"/>
<path d="M350.48 190.185C356.301 185.788 356.957 176.877 351.944 170.281C346.932 163.685 338.15 161.903 332.328 166.301C326.507 170.698 325.851 179.609 330.864 186.205C335.876 192.8 344.659 194.583 350.48 190.185Z" fill="#68E1FD"/>
<path d="M455.856 91.7799C455.856 91.7799 340.422 120.4 281.768 205.135C281.768 205.135 267.993 219.788 274.646 227.932C281.299 236.076 303.477 229.594 303.477 229.594C303.477 229.594 376.361 208.966 455.856 91.7799Z" fill="#68E1FD"/>
<path d="M281.768 205.135C281.768 205.135 267.221 203.377 262.483 206.989C257.744 210.601 242.206 222.301 242.206 222.301L244.782 225.694C244.782 225.694 266.023 220.571 274.618 221.038C283.214 221.505 281.768 205.135 281.768 205.135Z" fill="#68E1FD"/>
<path d="M299.289 228.193C299.289 228.193 297.058 242.627 292.278 246.225C287.498 249.823 272.001 261.538 272.001 261.538L269.439 258.187C269.439 258.187 280.128 239.193 282.016 230.802C283.903 222.411 299.289 228.193 299.289 228.193Z" fill="#68E1FD"/>
<path opacity="0.29" d="M281.768 205.135C281.768 205.135 267.221 203.377 262.483 206.989C257.744 210.601 242.206 222.301 242.206 222.301L244.782 225.694C244.782 225.694 266.023 220.571 274.618 221.038C283.214 221.505 281.768 205.135 281.768 205.135Z" fill="#363636"/>
<path opacity="0.29" d="M299.289 228.193C299.289 228.193 297.058 242.627 292.278 246.225C287.498 249.823 272.001 261.538 272.001 261.538L269.439 258.187C269.439 258.187 280.128 239.193 282.016 230.802C283.903 222.411 299.289 228.193 299.289 228.193Z" fill="#363636"/>
<path d="M399.778 112.421C399.778 112.421 399.379 131.881 420.041 139.091L408.057 152.66C408.057 152.66 382.105 138.116 386.127 119.013L399.778 112.421Z" fill="#68E1FD"/>
<path d="M325.655 157.535C325.655 157.535 325.889 190.495 356.717 199.875L333.823 215.476C333.823 215.476 300.763 204.036 306.893 174.715L325.655 157.535Z" fill="#68E1FD"/>
<path d="M381.378 152.783C383.427 151.235 383.83 148.323 382.277 146.28C380.724 144.237 377.804 143.835 375.754 145.383C373.705 146.932 373.302 149.843 374.855 151.886C376.408 153.93 379.328 154.331 381.378 152.783Z" fill="#68E1FD"/>
<path d="M364.47 177.097C369.838 173.083 370.926 165.491 366.9 160.139C362.874 154.787 355.259 153.703 349.891 157.716C344.523 161.73 343.435 169.322 347.461 174.674C351.487 180.026 359.102 181.111 364.47 177.097Z" fill="#68E1FD"/>
<path opacity="0.61" d="M399.778 112.421C399.778 112.421 399.379 131.881 420.041 139.091L408.057 152.66C408.057 152.66 382.105 138.116 386.127 119.013L399.778 112.421Z" fill="#606060"/>
<path opacity="0.61" d="M325.655 157.535C325.655 157.535 325.889 190.495 356.717 199.875L333.823 215.476C333.823 215.476 300.763 204.036 306.893 174.715L325.655 157.535Z" fill="#606060"/>
<path opacity="0.61" d="M381.378 152.783C383.427 151.235 383.83 148.323 382.277 146.28C380.724 144.237 377.804 143.835 375.754 145.383C373.705 146.932 373.302 149.843 374.855 151.886C376.408 153.93 379.328 154.331 381.378 152.783Z" fill="#606060"/>
<path opacity="0.61" d="M364.47 177.097C369.838 173.083 370.926 165.491 366.9 160.139C362.874 154.787 355.259 153.703 349.891 157.716C344.523 161.73 343.435 169.322 347.461 174.674C351.487 180.026 359.102 181.111 364.47 177.097Z" fill="#606060"/>
<path d="M421.928 237.491C421.563 237.491 421.213 237.635 420.954 237.893C420.696 238.15 420.551 238.5 420.551 238.864C420.551 239.228 420.696 239.577 420.954 239.835C421.213 240.092 421.563 240.237 421.928 240.237C422.294 240.237 422.644 240.092 422.902 239.835C423.161 239.577 423.306 239.228 423.306 238.864C423.306 238.5 423.161 238.15 422.902 237.893C422.644 237.635 422.294 237.491 421.928 237.491Z" fill="white"/>
<path d="M352.144 292.19V293.069C352.144 293.434 352.289 293.783 352.548 294.04C352.806 294.298 353.156 294.443 353.522 294.443C353.887 294.443 354.237 294.298 354.496 294.04C354.754 293.783 354.899 293.434 354.899 293.069V292.19C354.899 291.826 354.754 291.477 354.496 291.219C354.237 290.962 353.887 290.817 353.522 290.817C353.156 290.817 352.806 290.962 352.548 291.219C352.289 291.477 352.144 291.826 352.144 292.19Z" fill="white"/>
<path d="M255.664 314.054V314.933C255.664 315.297 255.809 315.646 256.068 315.904C256.326 316.161 256.676 316.306 257.042 316.306C257.407 316.306 257.757 316.161 258.016 315.904C258.274 315.646 258.419 315.297 258.419 314.933V314.054C258.419 313.69 258.274 313.34 258.016 313.083C257.757 312.825 257.407 312.681 257.042 312.681C256.676 312.681 256.326 312.825 256.068 313.083C255.809 313.34 255.664 313.69 255.664 314.054Z" fill="white"/>
<path d="M345.629 247.104C345.263 247.104 344.913 247.249 344.655 247.506C344.396 247.764 344.251 248.113 344.251 248.477C344.251 248.841 344.396 249.191 344.655 249.448C344.913 249.706 345.263 249.851 345.629 249.851C345.994 249.851 346.344 249.706 346.603 249.448C346.861 249.191 347.006 248.841 347.006 248.477C347.006 248.113 346.861 247.764 346.603 247.506C346.344 247.249 345.994 247.104 345.629 247.104Z" fill="white"/>
<path d="M180.742 244.453C180.376 244.453 180.026 244.598 179.768 244.856C179.509 245.113 179.364 245.462 179.364 245.827C179.364 246.191 179.509 246.54 179.768 246.798C180.026 247.055 180.376 247.2 180.742 247.2C181.107 247.2 181.457 247.055 181.716 246.798C181.974 246.54 182.119 246.191 182.119 245.827C182.119 245.462 181.974 245.113 181.716 244.856C181.457 244.598 181.107 244.453 180.742 244.453Z" fill="white"/>
<path d="M118.837 248.477V249.356C118.837 249.72 118.982 250.07 119.24 250.327C119.499 250.585 119.849 250.729 120.214 250.729C120.58 250.729 120.93 250.585 121.188 250.327C121.447 250.07 121.592 249.72 121.592 249.356V248.477C121.592 248.113 121.447 247.764 121.188 247.506C120.93 247.249 120.58 247.104 120.214 247.104C119.849 247.104 119.499 247.249 119.24 247.506C118.982 247.764 118.837 248.113 118.837 248.477Z" fill="white"/>
<path d="M148.288 291.696C147.923 291.696 147.572 291.841 147.314 292.098C147.055 292.356 146.91 292.705 146.91 293.069C146.91 293.434 147.055 293.783 147.314 294.04C147.572 294.298 147.923 294.443 148.288 294.443C148.653 294.443 149.004 294.298 149.262 294.04C149.52 293.783 149.665 293.434 149.665 293.069C149.665 292.705 149.52 292.356 149.262 292.098C149.004 291.841 148.653 291.696 148.288 291.696Z" fill="white"/>
<path d="M193.897 213.869C193.532 213.869 193.181 214.014 192.923 214.271C192.665 214.529 192.519 214.878 192.519 215.243C192.519 215.607 192.665 215.956 192.923 216.214C193.181 216.471 193.532 216.616 193.897 216.616C194.262 216.616 194.613 216.471 194.871 216.214C195.129 215.956 195.274 215.607 195.274 215.243C195.274 214.878 195.129 214.529 194.871 214.271C194.613 214.014 194.262 213.869 193.897 213.869Z" fill="white"/>
<path d="M261.422 170.156C261.057 170.156 260.706 170.301 260.448 170.558C260.19 170.816 260.044 171.165 260.044 171.529C260.044 171.894 260.19 172.243 260.448 172.5C260.706 172.758 261.057 172.903 261.422 172.903C261.787 172.903 262.138 172.758 262.396 172.5C262.654 172.243 262.799 171.894 262.799 171.529C262.799 171.165 262.654 170.816 262.396 170.558C262.138 170.301 261.787 170.156 261.422 170.156Z" fill="white"/>
<path d="M302.651 341.534C302.285 341.534 301.935 341.679 301.677 341.937C301.418 342.194 301.273 342.543 301.273 342.908C301.273 343.272 301.418 343.621 301.677 343.879C301.935 344.136 302.285 344.281 302.651 344.281C303.016 344.281 303.366 344.136 303.625 343.879C303.883 343.621 304.028 343.272 304.028 342.908C304.028 342.543 303.883 342.194 303.625 341.937C303.366 341.679 303.016 341.534 302.651 341.534Z" fill="white"/>
<path d="M393.855 264.339C384.997 264.339 384.97 278.073 393.855 278.073C402.74 278.073 402.74 264.339 393.855 264.339Z" fill="#FFAE46"/>
<path d="M146.538 256.47C137.681 256.47 137.654 270.203 146.538 270.203C155.423 270.203 155.41 256.47 146.538 256.47Z" fill="#FFAE46"/>
<path d="M278.572 346.794C277.28 345.507 275.529 344.784 273.702 344.784C271.876 344.784 270.125 345.507 268.833 346.794C267.567 348.101 266.847 349.839 266.822 351.656V352.535C266.842 354.352 267.562 356.093 268.833 357.396C270.125 358.684 271.876 359.407 273.702 359.407C275.529 359.407 277.28 358.684 278.572 357.396C279.838 356.09 280.557 354.351 280.583 352.535V351.656C280.563 349.838 279.843 348.097 278.572 346.794V346.794Z" fill="#00AEE1"/>
<path d="M152.558 163.07C169.143 163.07 182.588 149.666 182.588 133.131C182.588 116.596 169.143 103.192 152.558 103.192C135.973 103.192 122.529 116.596 122.529 133.131C122.529 149.666 135.973 163.07 152.558 163.07Z" fill="#68E1FD"/>
<path d="M176.981 116.665C180.15 115.794 183.37 115.124 186.624 114.66C188.258 114.412 189.904 114.257 191.555 114.193C193.269 114.097 194.989 114.198 196.679 114.495C197.657 114.66 198.593 115.015 199.434 115.539C199.942 115.871 200.373 116.307 200.702 116.816C201.047 117.371 201.246 118.004 201.28 118.656C201.293 119.734 201.042 120.799 200.55 121.76C200.16 122.577 199.699 123.358 199.173 124.094C197.084 126.769 194.669 129.172 191.982 131.249C186.826 135.342 181.349 139.016 175.604 142.236C169.92 145.512 164.066 148.487 158.068 151.149C152.068 153.855 145.909 156.194 139.623 158.153C136.456 159.161 133.238 160 129.981 160.666C126.644 161.396 123.254 161.86 119.843 162.053C118.095 162.143 116.343 162.074 114.608 161.847C112.752 161.638 110.945 161.118 109.263 160.309C108.339 159.866 107.493 159.277 106.756 158.565C105.93 157.75 105.336 156.731 105.034 155.612C104.768 154.544 104.768 153.426 105.034 152.358C105.261 151.428 105.608 150.533 106.068 149.693C107.883 146.771 110.217 144.202 112.955 142.113C115.484 140.025 118.189 138.159 121.041 136.537C118.678 138.713 116.425 141.004 114.291 143.403C112.156 145.673 110.386 148.258 109.043 151.067C108.502 152.137 108.374 153.369 108.685 154.527C108.863 154.958 109.147 155.336 109.511 155.626C109.983 155.992 110.502 156.292 111.054 156.519C113.794 157.424 116.704 157.701 119.567 157.329C125.806 156.606 131.946 155.197 137.874 153.127C143.935 151.177 149.844 148.732 155.781 146.26C167.529 141.242 178.774 135.127 189.365 127.995C191.909 126.242 194.259 124.226 196.376 121.979C196.846 121.453 197.27 120.888 197.644 120.29C197.937 119.831 198.134 119.317 198.222 118.78C198.235 118.596 198.198 118.413 198.116 118.249C198.033 118.085 197.908 117.946 197.754 117.846C197.233 117.468 196.651 117.185 196.032 117.008C192.985 116.278 189.85 115.982 186.72 116.129C183.455 116.143 180.218 116.335 176.981 116.665Z" fill="#8CC63F"/>
</svg>
