<svg width="597" height="416" viewBox="0 0 597 416" fill="none" xmlns="http://www.w3.org/2000/svg">
<path d="M486.823 282.397C543.718 282.019 494.372 399.71 549.461 413.937C566.735 418.398 583.622 411.416 598.949 399.125V0.153122H1.9182C-0.560918 51.088 -7.07809 105.1 40.0045 111.186C75.8237 115.816 86.3464 58.7767 121.434 67.3394C166.279 78.2833 111.295 187.045 156.929 180.088C184.288 175.917 180.733 138.573 207.039 129.977C264.801 111.104 179.465 267.424 238.358 282.397C286.362 294.602 296.095 204.721 344.843 213.495C403.754 224.098 347.654 355.296 407.481 353.387C449.037 352.06 445.247 282.673 486.823 282.397Z" fill="white"/>
</svg>
